<svg width="5644" height="1115" viewBox="0 0 5644 1115" fill="none" xmlns="http://www.w3.org/2000/svg">
<rect x="5044" y="714.997" width="100" height="100" fill="#00C221"/>
<rect x="5144" y="814.997" width="100" height="100" fill="#00D524"/>
<rect x="5444" y="814.997" width="100" height="100" fill="#00D524"/>
<rect x="5244" y="914.997" width="100" height="100" fill="#00D023"/>
<rect x="5044" y="914.997" width="100" height="100" fill="#00A91C"/>
<rect x="3944" y="915" width="100" height="100" fill="#00560F"/>
<rect x="4944" y="814.997" width="100" height="100" fill="#007E15"/>
<rect x="5144" y="1015" width="100" height="100" fill="#00E126"/>
<rect x="5444" y="714.997" width="100" height="100" fill="#65FF7F"/>
<rect x="5544" y="614.997" width="100" height="100" fill="#0AFE33"/>
<rect x="5344" y="614.997" width="100" height="100" fill="#9DFFAE"/>
<rect x="5344" y="1015" width="100" height="100" fill="#5DF577"/>
<rect x="5444" y="515" width="100" height="100" fill="#05A21F"/>
<rect x="5444" y="914.997" width="100" height="100" fill="#8AFF9E"/>
<rect x="5544" y="814.997" width="100" height="100" fill="#B0FFBD"/>
<rect x="5544" y="415" width="100" height="100" fill="#0AFE33"/>
<rect x="5244" y="1015" width="100" height="100" fill="#84FF98"/>
<rect x="4744" y="1015" width="100" height="100" fill="#00A61C"/>
<rect x="4644" y="814.997" width="100" height="100" fill="#12FF3A"/>
<rect x="3548" y="1015" width="100" height="100" fill="#003308"/>
<rect x="3944" y="715" width="100" height="100" fill="#003308"/>
<rect x="3248" y="1015" width="100" height="100" fill="#003308"/>
<rect x="3348" y="1015" width="100" height="100" fill="#005D10"/>
<rect x="4844" y="614.997" width="100" height="100" fill="#00FF2B"/>
<rect x="5244" y="415" width="100" height="100" fill="#007113"/>
<rect x="5444" y="205" width="100" height="100" fill="#003308"/>
<rect x="4944" y="1015" width="100" height="100" fill="#6CDA7F"/>
<rect x="5544" y="1015" width="100" height="100" fill="#C0FFCB"/>
<rect x="5344" y="914.997" width="100" height="100" fill="#C1FFCB"/>
<rect x="4144" y="615" width="100" height="100" fill="#0AFE33"/>
<rect x="4044" y="1015" width="100" height="100" fill="#00FF2B"/>
<rect x="3048" y="1015" width="100" height="100" fill="#002206"/>
<rect x="2448" y="1015" width="100" height="100" fill="#002206"/>
<rect x="3648" y="915" width="100" height="100" fill="#00FF2B"/>
<rect x="5144" y="614.997" width="100" height="100" fill="#009319"/>
<rect x="4744" y="515" width="100" height="100" fill="#009319"/>
<rect x="5244" y="714.997" width="100" height="100" fill="#12FF3A"/>
<rect x="5444" y="1015" width="100" height="100" fill="white"/>
<rect x="5544" y="714.997" width="100" height="100" fill="#65FF7F"/>
<rect x="3748" y="1015" width="100" height="100" fill="#006812"/>
<rect x="3748" y="1015" width="100" height="100" fill="#006812"/>
<rect x="5344" y="814.997" width="100" height="100" fill="#8DFFA0"/>
<rect x="4544" y="615" width="100" height="100" fill="#00C221"/>
<rect x="4544" y="1015" width="100" height="100" fill="#00A61C"/>
<rect x="4248" y="910" width="100" height="100" fill="#00A91C"/>
<rect x="4244" y="510" width="100" height="100" fill="#00FF2B"/>
<path d="M4544 815H4644V915H4544V815Z" fill="#009319"/>
<rect x="4544" y="915" width="100" height="100" transform="rotate(-180 4544 915)" fill="#007E15"/>
<rect x="4444" y="815" width="100" height="100" transform="rotate(-180 4444 815)" fill="#00D023"/>
<rect x="4544" y="715" width="100" height="100" transform="rotate(-180 4544 715)" fill="#00E126"/>
<rect x="4544" y="1115" width="100" height="100" transform="rotate(-180 4544 1115)" fill="#009319"/>
<rect width="100" height="100" transform="matrix(-1 0 0 1 500 815)" fill="#007E15"/>
<rect width="100" height="100" transform="matrix(-1 0 0 1 600 310)" fill="#007E15"/>
<rect width="100" height="100" transform="matrix(-1 0 0 1 400 915)" fill="#00D023"/>
<rect width="100" height="100" transform="matrix(-1 0 0 1 600 915)" fill="#00A91C"/>
<rect width="100" height="100" transform="matrix(-1 0 0 1 1314 915)" fill="#00A91C"/>
<rect width="100" height="100" transform="matrix(-1 0 0 1 1614 1015)" fill="#00A91C"/>
<rect width="100" height="100" transform="matrix(-1 0 0 1 700 815)" fill="#009319"/>
<rect width="100" height="100" transform="matrix(-1 0 0 1 500 1015)" fill="#00E126"/>
<rect width="100" height="100" transform="matrix(-1 0 0 1 200 615)" fill="#00E126"/>
<rect width="100" height="100" transform="matrix(-1 0 0 1 1714 915)" fill="#00E126"/>
<rect width="100" height="100" transform="matrix(-1 0 0 1 200 715)" fill="#00B21E"/>
<rect width="100" height="100" transform="matrix(-1 0 0 1 100 615)" fill="#0AFE33"/>
<rect width="100" height="100" transform="matrix(-1 0 0 1 300 615)" fill="#037817"/>
<rect width="100" height="100" transform="matrix(-1 0 0 1 200 515)" fill="#05A21F"/>
<rect width="100" height="100" transform="matrix(-1 0 0 1 200 915)" fill="#0AFE33"/>
<rect width="100" height="100" transform="matrix(-1 0 0 1 100 815)" fill="#0AFE33"/>
<rect width="100" height="100" transform="matrix(-1 0 0 1 100 410)" fill="#0AFE33"/>
<rect width="100" height="100" transform="matrix(-1 0 0 1 100 410)" fill="#0AFE33"/>
<rect width="100" height="100" transform="matrix(-1 0 0 1 400 1015)" fill="#0AFE33"/>
<rect width="100" height="100" transform="matrix(-1 0 0 1 900 1015)" fill="#00A61C"/>
<rect width="100" height="100" transform="matrix(-1 0 0 1 1000 815)" fill="#006110"/>
<rect width="100" height="100" transform="matrix(-1 0 0 1 800 615)" fill="#00FF2B"/>
<rect width="100" height="100" transform="matrix(-1 0 0 1 700 310)" fill="#00AB1D"/>
<rect width="100" height="100" transform="matrix(-1 0 0 1 400 415)" fill="#007113"/>
<rect width="100" height="100" transform="matrix(-1 0 0 1 2014 1015)" fill="#007113"/>
<rect width="100" height="100" transform="matrix(-1 0 0 1 200 200)" fill="#00A71C"/>
<rect width="100" height="100" transform="matrix(-1 0 0 1 700 1015)" fill="#00590F"/>
<rect width="100" height="100" transform="matrix(-1 0 0 1 100 1015)" fill="#0AFE33"/>
<rect width="100" height="100" transform="matrix(-1 0 0 1 300 915)" fill="#00DE25"/>
<rect width="100" height="100" transform="matrix(-1 0 0 1 500 210)" fill="#00DE25"/>
<rect width="100" height="100" transform="matrix(-1 0 0 1 1114 615)" fill="#0AFE33"/>
<rect width="100" height="100" transform="matrix(-1 0 0 1 1214 1015)" fill="#00FF2B"/>
<rect width="100" height="100" transform="matrix(-1 0 0 1 500 615)" fill="#009319"/>
<rect width="100" height="100" transform="matrix(-1 0 0 1 300 815)" fill="#0AFE33"/>
<rect width="100" height="100" transform="matrix(-1 0 0 1 500 915)" fill="#0AFE33"/>
<rect x="300" y="815" width="100" height="100" fill="#00D524"/>
<rect y="1015" width="100" height="100" fill="#5DF577"/>
<rect x="300" y="915" width="100" height="100" fill="#8AFF9E"/>
<rect x="600" y="815" width="100" height="100" fill="#B0FFBD"/>
<rect x="100" y="1015" width="100" height="100" fill="#B0FFBD"/>
<rect x="600" y="1015" width="100" height="100" fill="#C0FFCB"/>
<rect y="915" width="100" height="100" fill="#C1FFCB"/>
<rect x="300" y="1015" width="100" height="100" fill="white"/>
<rect y="815" width="100" height="100" fill="#8DFFA0"/>
<rect width="100" height="100" fill="#003308"/>
</svg>
