<svg width="2196" height="910" viewBox="0 0 2196 910" fill="none" xmlns="http://www.w3.org/2000/svg">
<rect x="1596" y="510" width="100" height="100" fill="#00C221"/>
<rect x="1696" y="610" width="100" height="100" fill="#00D524"/>
<rect x="1996" y="610" width="100" height="100" fill="#00D524"/>
<rect x="1796" y="710" width="100" height="100" fill="#00D023"/>
<rect x="1596" y="710" width="100" height="100" fill="#00A91C"/>
<rect x="896" y="710" width="100" height="100" fill="#00560F"/>
<rect x="1496" y="610" width="100" height="100" fill="#007E15"/>
<rect x="1696" y="810" width="100" height="100" fill="#00E126"/>
<rect x="1996" y="510" width="100" height="100" fill="#65FF7F"/>
<rect x="2096" y="410" width="100" height="100" fill="#0AFE33"/>
<rect x="1896" y="410" width="100" height="100" fill="#9DFFAE"/>
<rect x="1896" y="810" width="100" height="100" fill="#5DF577"/>
<rect x="1996" y="310.003" width="100" height="100" fill="#05A21F"/>
<rect x="1996" y="710" width="100" height="100" fill="#8AFF9E"/>
<rect x="2096" y="610" width="100" height="100" fill="#B0FFBD"/>
<rect x="2096" y="210.003" width="100" height="100" fill="#0AFE33"/>
<rect x="1796" y="810" width="100" height="100" fill="#84FF98"/>
<rect x="1296" y="810" width="100" height="100" fill="#00A61C"/>
<rect x="1196" y="610" width="100" height="100" fill="#12FF3A"/>
<rect x="500" y="810" width="100" height="100" fill="#003308"/>
<rect x="896" y="510" width="100" height="100" fill="#003308"/>
<rect x="200" y="810" width="100" height="100" fill="#003308"/>
<rect x="300" y="810" width="100" height="100" fill="#005D10"/>
<rect x="1396" y="410" width="100" height="100" fill="#00FF2B"/>
<rect x="1796" y="210.003" width="100" height="100" fill="#007113"/>
<rect x="1996" y="0.00292969" width="100" height="100" fill="#003308"/>
<rect x="1496" y="810" width="100" height="100" fill="#6CDA7F"/>
<rect x="2096" y="810" width="100" height="100" fill="#C0FFCB"/>
<rect x="1896" y="710" width="100" height="100" fill="#C1FFCB"/>
<rect x="1096" y="410" width="100" height="100" fill="#0AFE33"/>
<rect x="996" y="810" width="100" height="100" fill="#00FF2B"/>
<rect y="810" width="100" height="100" fill="#002206"/>
<rect x="600" y="710" width="100" height="100" fill="#00FF2B"/>
<rect x="1696" y="410" width="100" height="100" fill="#009319"/>
<rect x="1296" y="310.003" width="100" height="100" fill="#009319"/>
<rect x="1796" y="510" width="100" height="100" fill="#12FF3A"/>
<rect x="1996" y="810" width="100" height="100" fill="white"/>
<rect x="2096" y="510" width="100" height="100" fill="#65FF7F"/>
<rect x="700" y="810" width="100" height="100" fill="#006812"/>
<rect x="700" y="810" width="100" height="100" fill="#006812"/>
<rect x="1896" y="610" width="100" height="100" fill="#8DFFA0"/>
</svg>
